<?xml version="1.0" encoding="UTF-8"?> <svg xmlns="http://www.w3.org/2000/svg" xmlns:xlink="http://www.w3.org/1999/xlink" width="243.349" height="242.462" viewBox="0 0 243.349 242.462"><defs><clipPath id="clip-path"><rect id="Rectángulo_3347" data-name="Rectángulo 3347" width="3.431" height="12.277" fill="none"></rect></clipPath><clipPath id="clip-path-2"><rect id="Rectángulo_3348" data-name="Rectángulo 3348" width="9.796" height="9.587" fill="none"></rect></clipPath><clipPath id="clip-path-3"><rect id="Rectángulo_3349" data-name="Rectángulo 3349" width="16.307" height="17.258" fill="none"></rect></clipPath><clipPath id="clip-path-4"><rect id="Rectángulo_3350" data-name="Rectángulo 3350" width="41.131" height="56.706" fill="none"></rect></clipPath></defs><g id="Grupo_3429" data-name="Grupo 3429" transform="translate(-6100.698 -1961.545)"><path id="Trazado_8816" data-name="Trazado 8816" d="M6240.469,2110.576h-56.521l24.174-16.885h56.521Z" transform="translate(5.99 9.513)" fill="#f2f4ff" stroke="#6e7894" stroke-linecap="round" stroke-linejoin="round" stroke-width="0.5"></path><rect id="Rectángulo_3337" data-name="Rectángulo 3337" width="56.521" height="46.923" transform="translate(6189.939 2120.089)" fill="#f2f4ff" stroke="#6e7894" stroke-linecap="round" stroke-linejoin="round" stroke-width="0.5"></rect><path id="Trazado_8817" data-name="Trazado 8817" d="M6261.125,2140.389l-.188-46.958-24.676,17.421.188,46.958Z" transform="translate(9.766 9.494)" fill="#f2f4ff" stroke="#6e7894" stroke-linecap="round" stroke-linejoin="round" stroke-width="0.5"></path><path id="Trazado_8818" data-name="Trazado 8818" d="M6242.469,2042.576h-56.521l24.175-16.885h56.521Z" transform="translate(6.134 4.606)" fill="#f2f4ff" stroke="#6e7894" stroke-linecap="round" stroke-linejoin="round" stroke-width="0.5"></path><rect id="Rectángulo_3338" data-name="Rectángulo 3338" width="56.521" height="46.923" transform="translate(6192.083 2047.182)" fill="#f2f4ff" stroke="#6e7894" stroke-linecap="round" stroke-linejoin="round" stroke-width="0.5"></rect><path id="Trazado_8819" data-name="Trazado 8819" d="M6263.125,2072.388l-.187-46.958-24.676,17.421.188,46.958Z" transform="translate(9.909 4.587)" fill="#f2f4ff" stroke="#6e7894" stroke-linecap="round" stroke-linejoin="round" stroke-width="0.5"></path><path id="Trazado_8820" data-name="Trazado 8820" d="M6242.469,1984.576h-56.521l24.175-16.885h56.521Z" transform="translate(6.134 0.42)" fill="#8dbbff" stroke="#6e7894" stroke-linecap="round" stroke-linejoin="round" stroke-width="0.5"></path><rect id="Rectángulo_3339" data-name="Rectángulo 3339" width="56.521" height="46.923" transform="translate(6192.083 1984.996)" fill="#06f" stroke="#6e7894" stroke-miterlimit="10" stroke-width="0.5"></rect><path id="Trazado_8821" data-name="Trazado 8821" d="M6263.125,2014.389l-.187-46.958-24.676,17.421.188,46.958Z" transform="translate(9.909 0.402)" fill="#095ed8" stroke="#6e7894" stroke-miterlimit="10" stroke-width="0.5"></path><path id="Trazado_8822" data-name="Trazado 8822" d="M6306.469,2110.576h-56.521l24.175-16.885h56.521Z" transform="translate(10.753 9.513)" fill="#f2f4ff" stroke="#6e7894" stroke-linecap="round" stroke-linejoin="round" stroke-width="0.5"></path><rect id="Rectángulo_3340" data-name="Rectángulo 3340" width="56.521" height="46.923" transform="translate(6260.701 2120.089)" fill="#f2f4ff" stroke="#6e7894" stroke-linecap="round" stroke-linejoin="round" stroke-width="0.5"></rect><path id="Trazado_8823" data-name="Trazado 8823" d="M6327.125,2140.389l-.188-46.958-24.676,17.421.189,46.958Z" transform="translate(14.528 9.494)" fill="#f2f4ff" stroke="#6e7894" stroke-linecap="round" stroke-linejoin="round" stroke-width="0.5"></path><g id="Grupo_3414" data-name="Grupo 3414" transform="translate(6100.948 2098.637)"><path id="Trazado_8824" data-name="Trazado 8824" d="M6157.468,2106.575h-56.521l24.175-16.885h56.521Z" transform="translate(-6100.948 -2089.412)" fill="#f2f4ff" stroke="#6e7894" stroke-linecap="round" stroke-linejoin="round" stroke-width="0.5"></path><rect id="Rectángulo_3341" data-name="Rectángulo 3341" width="56.521" height="46.923" transform="translate(0.001 17.164)" fill="#f2f4ff" stroke="#6e7894" stroke-linecap="round" stroke-linejoin="round" stroke-width="0.5"></rect><path id="Trazado_8825" data-name="Trazado 8825" d="M6178.125,2136.389l-.188-46.958-24.676,17.421.188,46.958Z" transform="translate(-6097.172 -2089.431)" fill="#f2f4ff" stroke="#6e7894" stroke-linecap="round" stroke-linejoin="round" stroke-width="0.5"></path></g><path id="Trazado_8826" data-name="Trazado 8826" d="M6308.469,2042.576h-56.521l24.175-16.885h56.521Z" transform="translate(10.897 4.606)" fill="#f2f4ff" stroke="#6e7894" stroke-linecap="round" stroke-linejoin="round" stroke-width="0.5"></path><rect id="Rectángulo_3342" data-name="Rectángulo 3342" width="56.521" height="46.923" transform="translate(6262.846 2047.182)" fill="#f2f4ff" stroke="#6e7894" stroke-linecap="round" stroke-linejoin="round" stroke-width="0.5"></rect><path id="Trazado_8827" data-name="Trazado 8827" d="M6329.124,2072.388l-.188-46.958-24.676,17.421.188,46.958Z" transform="translate(14.673 4.587)" fill="#f2f4ff" stroke="#6e7894" stroke-linecap="round" stroke-linejoin="round" stroke-width="0.5"></path><path id="Trazado_8828" data-name="Trazado 8828" d="M6206.47,2144.576h-56.521l24.175-16.885h56.521Z" transform="translate(3.536 11.967)" fill="#f2f4ff" stroke="#6e7894" stroke-linecap="round" stroke-linejoin="round" stroke-width="0.5"></path><rect id="Rectángulo_3343" data-name="Rectángulo 3343" width="56.521" height="46.923" transform="translate(6153.485 2156.542)" fill="#f2f4ff" stroke="#6e7894" stroke-linecap="round" stroke-linejoin="round" stroke-width="0.5"></rect><path id="Trazado_8829" data-name="Trazado 8829" d="M6227.125,2174.389l-.188-46.958-24.675,17.421.188,46.958Z" transform="translate(7.311 11.948)" fill="#f2f4ff" stroke="#6e7894" stroke-linecap="round" stroke-linejoin="round" stroke-width="0.5"></path><path id="Trazado_8830" data-name="Trazado 8830" d="M6208.468,2076.576h-56.521l24.175-16.885h56.521Z" transform="translate(3.681 7.059)" fill="#f2f4ff" stroke="#6e7894" stroke-linecap="round" stroke-linejoin="round" stroke-width="0.5"></path><rect id="Rectángulo_3344" data-name="Rectángulo 3344" width="56.521" height="46.923" transform="translate(6155.629 2083.635)" fill="#f2f4ff" stroke="#6e7894" stroke-linecap="round" stroke-linejoin="round" stroke-width="0.5"></rect><path id="Trazado_8831" data-name="Trazado 8831" d="M6229.125,2106.388l-.188-46.958-24.676,17.421.189,46.958Z" transform="translate(7.456 7.041)" fill="#f2f4ff" stroke="#6e7894" stroke-linecap="round" stroke-linejoin="round" stroke-width="0.5"></path><path id="Trazado_8832" data-name="Trazado 8832" d="M6272.468,2144.576h-56.521l24.175-16.885h56.521Z" transform="translate(8.3 11.967)" fill="#f2f4ff" stroke="#6e7894" stroke-linecap="round" stroke-linejoin="round" stroke-width="0.5"></path><rect id="Rectángulo_3345" data-name="Rectángulo 3345" width="56.521" height="46.923" transform="translate(6224.248 2156.542)" fill="#f2f4ff" stroke="#6e7894" stroke-linecap="round" stroke-linejoin="round" stroke-width="0.5"></rect><path id="Trazado_8833" data-name="Trazado 8833" d="M6293.124,2174.389l-.187-46.958-24.676,17.421.188,46.958Z" transform="translate(12.075 11.948)" fill="#f2f4ff" stroke="#6e7894" stroke-linecap="round" stroke-linejoin="round" stroke-width="0.5"></path><path id="Trazado_8834" data-name="Trazado 8834" d="M6274.469,2076.576h-56.521l24.175-16.885h56.521Z" transform="translate(8.444 7.059)" fill="#f2f4ff" stroke="#6e7894" stroke-linecap="round" stroke-linejoin="round" stroke-width="0.5"></path><rect id="Rectángulo_3346" data-name="Rectángulo 3346" width="56.521" height="46.923" transform="translate(6226.393 2083.635)" fill="#f2f4ff" stroke="#6e7894" stroke-linecap="round" stroke-linejoin="round" stroke-width="0.5"></rect><path id="Trazado_8835" data-name="Trazado 8835" d="M6295.124,2106.388l-.187-46.958-24.676,17.421.188,46.958Z" transform="translate(12.219 7.041)" fill="#f2f4ff" stroke="#6e7894" stroke-linecap="round" stroke-linejoin="round" stroke-width="0.5"></path><g id="Grupo_3428" data-name="Grupo 3428" transform="translate(6127.496 1961.867)"><path id="Trazado_8836" data-name="Trazado 8836" d="M6176.731,2056.36l-.6,6.255a14.174,14.174,0,0,0,4.67-1.128l1.445-5.51Z" transform="translate(-6122.069 -1955.075)" fill="#e8e3dd"></path><path id="Trazado_8837" data-name="Trazado 8837" d="M6176.731,2056.36l-.6,6.255a14.174,14.174,0,0,0,4.67-1.128l1.445-5.51Z" transform="translate(-6122.069 -1955.075)" fill="none" stroke="#6e7894" stroke-linecap="round" stroke-linejoin="round" stroke-width="0.5"></path><path id="Trazado_8838" data-name="Trazado 8838" d="M6176.273,2062.245s-1.567,1.112-2.107,5.31h18.646a4.473,4.473,0,0,0-3.374-3.8l-8.495-2.637Z" transform="translate(-6122.212 -1954.704)" fill="#f2f4ff"></path><path id="Trazado_8839" data-name="Trazado 8839" d="M6176.273,2062.245s-1.567,1.112-2.107,5.31h18.646a4.473,4.473,0,0,0-3.374-3.8l-8.495-2.637Z" transform="translate(-6122.212 -1954.704)" fill="none" stroke="#6e7894" stroke-linecap="round" stroke-linejoin="round" stroke-width="0.5"></path><path id="Trazado_8840" data-name="Trazado 8840" d="M6132.1,2078.185l-2.229,6.276s-.117,1.742,2.554,3.468l5.361-8.658Z" transform="translate(-6125.407 -1953.473)" fill="#e8e3dd"></path><path id="Trazado_8841" data-name="Trazado 8841" d="M6132.1,2078.185l-2.229,6.276s-.117,1.742,2.554,3.468l5.361-8.658Z" transform="translate(-6125.407 -1953.473)" fill="none" stroke="#6e7894" stroke-linecap="round" stroke-linejoin="round" stroke-width="0.5"></path><path id="Trazado_8842" data-name="Trazado 8842" d="M6130.173,2084.122s-1.872.125-4.465,3.343l15.519,9.522a4.368,4.368,0,0,0-.867-4.886l-6.257-7.141Z" transform="translate(-6125.708 -1953.044)" fill="#f2f4ff"></path><path id="Trazado_8843" data-name="Trazado 8843" d="M6130.173,2084.122s-1.872.125-4.465,3.343l15.519,9.522a4.368,4.368,0,0,0-.867-4.886l-6.257-7.141Z" transform="translate(-6125.708 -1953.044)" fill="none" stroke="#6e7894" stroke-linecap="round" stroke-linejoin="round" stroke-width="0.5"></path><path id="Trazado_8844" data-name="Trazado 8844" d="M6129.8,2085.591h8.65c20.72-34.932,30.107-75.382,30.107-75.382l-18.588-6.62s-1.78,32.49-20.17,82" transform="translate(-6125.413 -1958.856)" fill="#06f" stroke="#6e7894" stroke-miterlimit="10" stroke-width="0.5"></path><path id="Trazado_8845" data-name="Trazado 8845" d="M6129.8,2085.591h8.65c20.72-34.932,30.107-75.382,30.107-75.382l-18.588-6.62S6148.192,2036.08,6129.8,2085.591Z" transform="translate(-6125.413 -1958.856)" fill="none" stroke="#6e7894" stroke-miterlimit="10" stroke-width="0.5"></path><path id="Trazado_8846" data-name="Trazado 8846" d="M6139.762,2007.99l-2.394,1.6a.573.573,0,0,1-.8-.8l2.595-3.864Z" transform="translate(-6124.931 -1958.758)" fill="#e8e3dd"></path><path id="Trazado_8847" data-name="Trazado 8847" d="M6139.762,2007.99l-2.394,1.6a.573.573,0,0,1-.8-.8l2.595-3.864Z" transform="translate(-6124.931 -1958.758)" fill="none" stroke="#6e7894" stroke-linecap="round" stroke-linejoin="round" stroke-width="0.5"></path><path id="Trazado_8848" data-name="Trazado 8848" d="M6141.554,2006.483l-3.8,7.39a.481.481,0,0,1-.911-.235,36.429,36.429,0,0,1,1.859-8.633Z" transform="translate(-6124.906 -1958.754)" fill="#e8e3dd"></path><path id="Trazado_8849" data-name="Trazado 8849" d="M6141.554,2006.483l-3.8,7.39a.481.481,0,0,1-.911-.235,36.429,36.429,0,0,1,1.859-8.633Z" transform="translate(-6124.906 -1958.754)" fill="none" stroke="#6e7894" stroke-linecap="round" stroke-linejoin="round" stroke-width="0.5"></path><path id="Trazado_8850" data-name="Trazado 8850" d="M6180.922,2006.965l.331,2.173a.437.437,0,0,1-.808.291l-1.825-3.046Z" transform="translate(-6121.89 -1958.654)" fill="#e8e3dd"></path><path id="Trazado_8851" data-name="Trazado 8851" d="M6180.922,2006.965l.331,2.173a.437.437,0,0,1-.808.291l-1.825-3.046Z" transform="translate(-6121.89 -1958.654)" fill="none" stroke="#6e7894" stroke-linecap="round" stroke-linejoin="round" stroke-width="0.5"></path><path id="Trazado_8852" data-name="Trazado 8852" d="M6172.816,1988.007s4.238,10.922,8.233,18.54l-2.41,1.845s-6.1-5.834-7.962-10.607Z" transform="translate(-6122.463 -1959.98)" fill="#ece7ee"></path><path id="Trazado_8853" data-name="Trazado 8853" d="M6172.816,1988.007s4.238,10.922,8.233,18.54l-2.41,1.845s-6.1-5.834-7.962-10.607Z" transform="translate(-6122.463 -1959.98)" fill="none" stroke="#6e7894" stroke-miterlimit="10" stroke-width="0.5"></path><path id="Trazado_8854" data-name="Trazado 8854" d="M6180.482,2005.3l3.867,5.024a.368.368,0,0,1-.458.553,27.819,27.819,0,0,1-5.354-4.088Z" transform="translate(-6121.896 -1958.732)" fill="#e8e3dd"></path><path id="Trazado_8855" data-name="Trazado 8855" d="M6180.482,2005.3l3.867,5.024a.368.368,0,0,1-.458.553,27.819,27.819,0,0,1-5.354-4.088Z" transform="translate(-6121.896 -1958.732)" fill="none" stroke="#6e7894" stroke-linecap="round" stroke-linejoin="round" stroke-width="0.5"></path><path id="Trazado_8856" data-name="Trazado 8856" d="M6174.832,1978.938s8.716,10,4.553,15.342-19.017,12.057-19.017,12.057l-7.862-8,17.153-15.674Z" transform="translate(-6123.774 -1960.634)" fill="#ece7ee"></path><path id="Trazado_8857" data-name="Trazado 8857" d="M6174.832,1978.938s8.716,10,4.553,15.342-19.017,12.057-19.017,12.057l-7.862-8,17.153-15.674Z" transform="translate(-6123.774 -1960.634)" fill="none" stroke="#6e7894" stroke-miterlimit="10" stroke-width="0.5"></path><path id="Trazado_8858" data-name="Trazado 8858" d="M6167.99,1988.042c-14.416,2.246-26.146,20.565-26.146,20.565h-4.14c6.1-17.955,27.452-31.5,38.194-29.658" transform="translate(-6124.843 -1960.646)" fill="#ece7ee"></path><path id="Trazado_8859" data-name="Trazado 8859" d="M6167.99,1988.042c-14.416,2.246-26.146,20.565-26.146,20.565h-4.14c6.1-17.955,27.452-31.5,38.194-29.658" transform="translate(-6124.843 -1960.646)" fill="none" stroke="#6e7894" stroke-miterlimit="10" stroke-width="0.5"></path><path id="Trazado_8860" data-name="Trazado 8860" d="M6176.363,1974.565s-2.244,3.136-1.6,8.607-4.083-3.12-4.083-3.12l1.416-7.587Z" transform="translate(-6122.463 -1961.102)" fill="#e8e3dd"></path><path id="Trazado_8861" data-name="Trazado 8861" d="M6176.363,1974.565s-2.244,3.136-1.6,8.607-4.083-3.12-4.083-3.12l1.416-7.587Z" transform="translate(-6122.463 -1961.102)" fill="none" stroke="#6e7894" stroke-linecap="round" stroke-linejoin="round" stroke-width="0.5"></path><g id="Grupo_3418" data-name="Grupo 3418" transform="translate(48.103 11.856)" opacity="0.15"><g id="Grupo_3417" data-name="Grupo 3417"><g id="Grupo_3416" data-name="Grupo 3416" clip-path="url(#clip-path)"><path id="Trazado_8862" data-name="Trazado 8862" d="M6171.171,1980.87c-.3-.511-.494-.862-.494-.862l1.292-6.93,1.289.73a15.226,15.226,0,0,0,.262,10.5Z" transform="translate(-6170.566 -1972.914)" fill="#6e7894"></path><path id="Trazado_8863" data-name="Trazado 8863" d="M6171.171,1980.87c-.3-.511-.494-.862-.494-.862l1.292-6.93,1.289.73a15.226,15.226,0,0,0,.262,10.5Z" transform="translate(-6170.566 -1972.914)" fill="none" stroke="#6e7894" stroke-miterlimit="10" stroke-width="0.5"></path></g></g></g><path id="Trazado_8864" data-name="Trazado 8864" d="M6175.416,1963.2c2.1,0,3.763,2.879,4.392,4.556,1.589,4.248,0,9.893-2.75,10.553-1.974.473-4.052-1.678-4.375-2.037a8.636,8.636,0,0,1-2-5.889c0-3.97,2.126-7.187,4.735-7.183" transform="translate(-6122.463 -1961.77)" fill="#e8e3dd"></path><path id="Trazado_8865" data-name="Trazado 8865" d="M6175.416,1963.2c2.1,0,3.763,2.879,4.392,4.556,1.589,4.248,0,9.893-2.75,10.553-1.974.473-4.052-1.678-4.375-2.037a8.636,8.636,0,0,1-2-5.889C6170.685,1966.413,6172.806,1963.2,6175.416,1963.2Z" transform="translate(-6122.463 -1961.77)" fill="none" stroke="#6e7894" stroke-linecap="round" stroke-linejoin="round" stroke-width="0.5"></path><g id="Grupo_3421" data-name="Grupo 3421" transform="translate(48.109 2.28)" opacity="0.15"><g id="Grupo_3420" data-name="Grupo 3420"><g id="Grupo_3419" data-name="Grupo 3419" clip-path="url(#clip-path-2)"><path id="Trazado_8866" data-name="Trazado 8866" d="M6178.329,1967.45s-.55,5.676-7.2,6.012a9.567,9.567,0,0,1-.448-3.145c0-.021,0-.041,0-.061l6.863-6.135,0,0,2.006,2.957c.1.215.182.42.254.61a9.765,9.765,0,0,1,.433,1.557c-.634-.008-1.521-.306-1.911-1.8" transform="translate(-6170.571 -1963.983)" fill="#6e7894"></path><path id="Trazado_8867" data-name="Trazado 8867" d="M6178.329,1967.45s-.55,5.676-7.2,6.012a9.567,9.567,0,0,1-.448-3.145c0-.021,0-.041,0-.061l6.863-6.135,0,0,2.006,2.957c.1.215.182.42.254.61a9.765,9.765,0,0,1,.433,1.557C6179.606,1969.239,6178.719,1968.941,6178.329,1967.45Z" transform="translate(-6170.571 -1963.983)" fill="none" stroke="#6e7894" stroke-miterlimit="10" stroke-width="0.5"></path></g></g></g><g id="Grupo_3424" data-name="Grupo 3424" transform="translate(28.58 28.571)" opacity="0.15"><g id="Grupo_3423" data-name="Grupo 3423"><g id="Grupo_3422" data-name="Grupo 3422" clip-path="url(#clip-path-3)"><path id="Trazado_8868" data-name="Trazado 8868" d="M6168.55,2001.48c-4.33,2.415-8.183,4.156-8.183,4.156l-7.861-8,9.84-8.991a20.755,20.755,0,0,1,6.2,12.832" transform="translate(-6152.354 -1988.504)" fill="#6e7894"></path><path id="Trazado_8869" data-name="Trazado 8869" d="M6168.55,2001.48c-4.33,2.415-8.183,4.156-8.183,4.156l-7.861-8,9.84-8.991A20.755,20.755,0,0,1,6168.55,2001.48Z" transform="translate(-6152.354 -1988.504)" fill="none" stroke="#6e7894" stroke-miterlimit="10" stroke-width="0.5"></path></g></g></g><path id="Trazado_8870" data-name="Trazado 8870" d="M6184.447,2063.809h-7.259l4.245-35.4c-20.636-4.42-34.124-10.985-33.238-23.043.133-1.805.811-4.78,4.626-8.333l14.416,7.73,24,12.873a11.282,11.282,0,0,1,5.24,13.881Z" transform="translate(-6124.089 -1959.329)" fill="#8dbbff" stroke="#6e7894" stroke-linecap="round" stroke-linejoin="round" stroke-width="0.5"></path><path id="Trazado_8871" data-name="Trazado 8871" d="M6184.447,2063.809h-7.259l4.245-35.4c-20.636-4.42-34.124-10.985-33.238-23.043.133-1.805.811-4.78,4.626-8.333l14.416,7.73,24,12.873a11.282,11.282,0,0,1,5.24,13.881Z" transform="translate(-6124.089 -1959.329)" fill="none" stroke="#6e7894" stroke-miterlimit="10" stroke-width="0.5"></path><g id="Grupo_3427" data-name="Grupo 3427" transform="translate(24.125 47.856)" opacity="0.15"><g id="Grupo_3426" data-name="Grupo 3426"><g id="Grupo_3425" data-name="Grupo 3425" clip-path="url(#clip-path-4)"><path id="Trazado_8872" data-name="Trazado 8872" d="M6177.193,2062.96l4.227-35.24c-18.65-3.994-31.461-9.743-33.1-19.714a31.568,31.568,0,0,1,28.873,54.954" transform="translate(-6148.202 -2006.494)" fill="#6e7894"></path><path id="Trazado_8873" data-name="Trazado 8873" d="M6177.193,2062.96l4.227-35.24c-18.65-3.994-31.461-9.743-33.1-19.714a31.568,31.568,0,0,1,28.873,54.954Z" transform="translate(-6148.202 -2006.494)" fill="none" stroke="#6e7894" stroke-miterlimit="10" stroke-width="0.5"></path></g></g></g><path id="Trazado_8874" data-name="Trazado 8874" d="M6172.265,1975.148l-.786,3.759s-5.753-1.48-7.121-2.561c0,0,5.78-13.625,10.556-14.354a4.357,4.357,0,0,1,4.434,1.478,11.609,11.609,0,0,1,.772,1.16c.94,1.561,4.163,7.854,8.141,10.147a15.562,15.562,0,0,1-12.895,4.664l.232-1.262s3.479,1.823,5.039-4.077a13.46,13.46,0,0,0-.374-6.249s-.768-.125-1.781-1.6a9.631,9.631,0,0,1-7.149,6.325,9.806,9.806,0,0,0,.933,2.575" transform="translate(-6122.919 -1961.867)" fill="#524c4e"></path><path id="Trazado_8875" data-name="Trazado 8875" d="M6172.265,1975.148l-.786,3.759s-5.753-1.48-7.121-2.561c0,0,5.78-13.625,10.556-14.354a4.357,4.357,0,0,1,4.434,1.478,11.609,11.609,0,0,1,.772,1.16c.94,1.561,4.163,7.854,8.141,10.147a15.562,15.562,0,0,1-12.895,4.664l.232-1.262s3.479,1.823,5.039-4.077a13.46,13.46,0,0,0-.374-6.249s-.768-.125-1.781-1.6a9.631,9.631,0,0,1-7.149,6.325A9.806,9.806,0,0,0,6172.265,1975.148Z" transform="translate(-6122.919 -1961.867)" fill="none" stroke="#6e7894" stroke-linecap="round" stroke-linejoin="round" stroke-width="0.5"></path></g></g></svg> 